<svg width="26" height="22" viewBox="0 0 26 22" fill="none" xmlns="http://www.w3.org/2000/svg">
<g id="Vector">
<path d="M23.0109 6.85659H16.7608V3.16321C16.76 2.41001 16.4604 1.68792 15.9278 1.15533C15.3952 0.622744 14.6731 0.323148 13.9199 0.322266H3.69251C2.93931 0.323148 2.21722 0.622744 1.68463 1.15533C1.15204 1.68792 0.852445 2.41001 0.851562 3.16321V9.98147C0.852445 10.7347 1.15204 11.4568 1.68463 11.9894C2.21722 12.5219 2.93931 12.8215 3.69251 12.8224V14.0097C3.69207 14.2339 3.75838 14.4532 3.88298 14.6396C4.00759 14.826 4.18486 14.9711 4.39221 15.0564C4.6004 15.1434 4.82979 15.1664 5.0511 15.1224C5.2724 15.0784 5.47557 14.9694 5.63465 14.8094C5.65499 14.7894 5.67364 14.7677 5.69041 14.7446L7.10467 12.8224H9.94258V16.5158C9.94346 17.269 10.2431 17.9911 10.7756 18.5237C11.3082 19.0563 12.0303 19.3559 12.7835 19.3567H19.0824L21.0712 21.3452C21.2301 21.504 21.4326 21.6121 21.6529 21.6558C21.8732 21.6996 22.1016 21.677 22.3091 21.5911C22.5167 21.5051 22.6941 21.3596 22.8189 21.1728C22.9438 20.9861 23.0105 20.7665 23.0106 20.5419V19.3567C23.7638 19.3559 24.4859 19.0563 25.0185 18.5237C25.5511 17.9911 25.8507 17.269 25.8516 16.5158V9.69753C25.8508 8.94436 25.5512 8.22227 25.0187 7.68967C24.4861 7.15707 23.7641 6.85747 23.0109 6.85659ZM6.8177 11.686C6.72861 11.686 6.64077 11.707 6.56128 11.7472C6.48179 11.7874 6.41288 11.8458 6.36011 11.9176L4.82888 13.997V12.2542C4.82888 12.1035 4.76902 11.959 4.66246 11.8525C4.55591 11.7459 4.41139 11.686 4.26069 11.686H3.69251C3.24057 11.6856 2.80729 11.5058 2.48773 11.1863C2.16816 10.8667 1.98842 10.4334 1.98794 9.98147V3.16321C1.98842 2.71128 2.16816 2.27799 2.48773 1.95843C2.80729 1.63887 3.24057 1.45912 3.69251 1.45864H13.9199C14.3718 1.45912 14.8051 1.63887 15.1247 1.95843C15.4442 2.27799 15.624 2.71128 15.6245 3.16321V6.85659H12.7835C12.1789 6.85819 11.5909 7.05445 11.1065 7.41629L9.32348 3.49624C9.27834 3.39692 9.20556 3.31268 9.11383 3.25361C9.0221 3.19454 8.91531 3.16313 8.8062 3.16313C8.6971 3.16313 8.5903 3.19454 8.49858 3.25361C8.40685 3.31268 8.33406 3.39692 8.28893 3.49624L5.44798 9.74632C5.38571 9.88356 5.38048 10.0399 5.43344 10.181C5.4864 10.3221 5.59321 10.4364 5.73041 10.4988C5.80399 10.5325 5.88401 10.5499 5.96496 10.5497C6.07414 10.5497 6.18102 10.5183 6.27281 10.4592C6.3646 10.4001 6.43741 10.3157 6.48254 10.2163L7.36407 8.27691H10.2496L10.2899 8.36509C10.0651 8.77378 9.94574 9.23204 9.94258 9.69844V11.686H6.8177ZM9.73288 7.14053H7.88074L8.8062 5.10414L9.73288 7.14053ZM24.7155 16.5158C24.7149 16.9677 24.5352 17.4009 24.2156 17.7205C23.8961 18.04 23.4628 18.2198 23.0109 18.2204H22.4427C22.3681 18.2203 22.2942 18.235 22.2252 18.2635C22.1563 18.2921 22.0936 18.3339 22.0409 18.3867C21.9881 18.4395 21.9463 18.5021 21.9177 18.5711C21.8892 18.64 21.8745 18.7139 21.8745 18.7886V20.5419L19.7194 18.3867C19.6667 18.334 19.6041 18.2921 19.5352 18.2635C19.4663 18.235 19.3924 18.2203 19.3178 18.2204H12.7835C12.3316 18.2198 11.8984 18.04 11.5788 17.7205C11.2593 17.4009 11.0795 16.9677 11.079 16.5158V9.69753C11.0794 9.2456 11.2592 8.81232 11.5787 8.49275C11.8983 8.17319 12.3316 7.99345 12.7835 7.99296H23.0109C23.4629 7.99345 23.8961 8.17319 24.2157 8.49275C24.5353 8.81232 24.715 9.2456 24.7155 9.69753V16.5158Z" fill="white"/>
<path d="M20.7382 11.1179H18.4654V9.98147C18.4654 9.83078 18.4056 9.68626 18.299 9.5797C18.1924 9.47315 18.0479 9.41329 17.8972 9.41329C17.7465 9.41329 17.602 9.47315 17.4955 9.5797C17.3889 9.68626 17.329 9.83078 17.329 9.98147V11.1179H15.0563C14.9056 11.1179 14.7611 11.1777 14.6545 11.2843C14.548 11.3908 14.4881 11.5353 14.4881 11.686C14.4881 11.8367 14.548 11.9813 14.6545 12.0878C14.7611 12.1944 14.9056 12.2542 15.0563 12.2542H19.2724C19.1332 13.2196 18.6422 14.0994 17.8939 14.7249C17.4565 14.3591 17.1032 13.9033 16.8581 13.3885C16.7935 13.2524 16.6775 13.1475 16.5356 13.0969C16.3937 13.0463 16.2376 13.0542 16.1014 13.1188C15.9653 13.1834 15.8605 13.2994 15.8099 13.4413C15.7593 13.5832 15.7672 13.7394 15.8317 13.8755C16.0959 14.423 16.4569 14.9184 16.8972 15.3376C16.3924 15.5534 15.8489 15.6644 15.2999 15.6637C15.2264 15.664 15.1536 15.6791 15.086 15.7081C15.0183 15.737 14.9572 15.7792 14.9061 15.8322C14.855 15.8851 14.8151 15.9478 14.7886 16.0164C14.7622 16.0851 14.7497 16.1583 14.752 16.2319C14.7566 16.3846 14.8207 16.5295 14.9307 16.6357C15.0406 16.7418 15.1877 16.8008 15.3405 16.8C16.2434 16.7997 17.1299 16.5585 17.9084 16.1012C18.6944 16.5567 19.5862 16.7976 20.4945 16.8C20.5681 16.7997 20.6408 16.7846 20.7085 16.7556C20.7761 16.7267 20.8373 16.6845 20.8883 16.6315C20.9394 16.5786 20.9794 16.5159 21.0058 16.4473C21.0323 16.3786 21.0447 16.3054 21.0424 16.2319C21.0378 16.0791 20.9737 15.9342 20.8638 15.828C20.7538 15.7219 20.6067 15.6629 20.4539 15.6637C19.9224 15.6617 19.3967 15.5523 18.9084 15.3421C19.7546 14.519 20.289 13.4277 20.4203 12.2545H20.7379C20.8886 12.2545 21.0331 12.1947 21.1396 12.0881C21.2462 11.9816 21.3061 11.837 21.3061 11.6863C21.3061 11.5357 21.2462 11.3911 21.1396 11.2846C21.0331 11.178 20.8889 11.1179 20.7382 11.1179Z" fill="white"/>
</g>
</svg>
